<svg version="1.2" xmlns="http://www.w3.org/2000/svg" viewBox="0 0 247 59" width="247" height="59">
	<title>Vector Smart Object-ai</title>
	<style>
		.s0 { fill: #003963 } 
		.s1 { fill: #ec1a3a } 
		.s2 { fill: #575756 } 
	</style>
	<g id="Layer 1">
		<g id="&lt;Group&gt;">
			<g id="&lt;Group&gt;">
				<g id="&lt;Group&gt;">
					<g id="&lt;Group&gt;">
						<g id="&lt;Group&gt;">
							<g id="&lt;Group&gt;">
								<g id="&lt;Group&gt;">
									<path id="&lt;Path&gt;" class="s0" d="m46 28.9c-5.1-3.5-11.7-2.1-15.1 3.1-2.9 4.4-7.2 4.9-8.9 4.9-5.4 0-9.2-3.8-10.3-7.8q0-0.1 0-0.1 0-0.1 0-0.1c-0.5-1.7-0.6-2.5-0.6-4.3 0-9.5 9.8-20 23.8-20 14.4 0 22.6 10.9 24.7 17q0-0.2-0.1-0.3c-4-11.9-15.3-20.5-28.6-20.5-16.7 0-30.3 13.6-30.3 30.3 0 14.9 10.8 27.7 25.7 27.7 12 0 20-6.7 23.7-15.9 2-5 0.6-10.9-4-14z"/>
								</g>
								<g id="&lt;Group&gt;">
									<path id="&lt;Path&gt;" class="s1" d="m59.8 22.2c-1.7-6-10-17.6-24.9-17.6-14 0-23.8 10.5-23.8 20 0 1.8 0.1 2.6 0.6 4.3q-0.3-1.1-0.3-2.2c0-9.9 9.9-16.8 20.1-16.8 13.8 0 25 11.2 25 25 0 10.8-6.3 20.2-15.3 24.7 11.6-4.2 20-15.4 20-28.5 0-3.1-0.5-5.8-1.4-8.9z"/>
								</g>
							</g>
						</g>
					</g>
				</g>
			</g>
			<g id="&lt;Group&gt;">
				<path id="&lt;Compound Path&gt;" fill-rule="evenodd" class="s2" d="m98.3 29.3v2.5h-22.3v-2.5h8.7v-4h2.9v4zm-4.8-1.4v-5.7h-15.6v-2.6h18.6v8.3zm-0.1 10.5q0 1.2-0.4 2.3-0.5 1-1.4 1.8-0.8 0.8-1.9 1.3-1.1 0.4-2.4 0.4-1.3 0-2.4-0.4-1.1-0.5-2-1.3-0.8-0.8-1.3-1.8-0.5-1.1-0.5-2.3 0-1.2 0.5-2.2 0.5-1.1 1.3-1.9 0.9-0.8 2-1.2 1.1-0.5 2.4-0.5 1.3 0 2.4 0.5 1.1 0.4 1.9 1.2 0.9 0.8 1.4 1.9 0.4 1 0.4 2.2zm-2.9 0q0-1.3-0.9-2.3-1-0.9-2.3-0.9-1.3 0-2.3 0.9-0.9 1-0.9 2.3 0 1.3 0.9 2.2 1 1 2.3 1 1.3 0 2.3-1 0.9-0.9 0.9-2.2z"/>
				<path id="&lt;Compound Path&gt;" fill-rule="evenodd" class="s2" d="m101.3 22.3v-2.5h13.9v2.5h-5.9l6.1 7.5-2.1 1.8-5-6.2-4.9 6.6-2.1-1.7 6.1-8zm19.2 15.8q0 1.2-0.5 2.3-0.5 1.1-1.3 1.9-0.9 0.8-2 1.3-1.2 0.4-2.5 0.4-1.3 0-2.4-0.4-1.2-0.5-2-1.3-0.9-0.8-1.4-1.9-0.5-1.1-0.5-2.3 0-1.2 0.5-2.3 0.5-1.1 1.4-1.9 0.8-0.8 2-1.3 1.1-0.4 2.4-0.4 1.3 0 2.5 0.4 1.1 0.5 2 1.3 0.8 0.8 1.3 1.9 0.5 1.1 0.5 2.3zm-3 0q0-1.4-0.9-2.4-1-0.9-2.4-0.9-1.4 0-2.4 0.9-0.9 1-0.9 2.4 0 1.4 0.9 2.3 1 1 2.4 1 1.4 0 2.4-1 0.9-0.9 0.9-2.3zm2.1-6.2v-5.3h-4.5v-2.6h4.5v-5h3v12.9z"/>
				<path id="&lt;Compound Path&gt;" class="s2" d="m137.8 40.1h-3v-16.8h-9.3v-2.8h12.3zm5.8-21h3v24.2h-3v-11.9h-3.7v-2.7h3.7z"/>
				<path id="&lt;Compound Path&gt;" class="s2" d="m161.8 39.9h-10.8v-11.1h7.1v-5.6h-7.1v-2.7h10v11h-7.1v5.8h7.9zm4.7-20.9v10.1h3.1v-10.1h2.8v24.2h-2.8v-11.3h-3.1v11.2h-2.8v-24.1z"/>
				<path id="&lt;Compound Path&gt;" fill-rule="evenodd" class="s2" d="m175.7 35.9v-2.6h16.2v2.6h-6.8v6.6h-3v-6.6zm14.4-10.3q0 1.3-0.5 2.4-0.5 1.1-1.4 1.9-0.9 0.8-2.1 1.3-1.1 0.5-2.5 0.5-1.3 0-2.5-0.5-1.1-0.5-2-1.3-0.9-0.8-1.4-1.9-0.5-1.1-0.5-2.4 0-1.2 0.5-2.3 0.5-1.2 1.4-2 0.9-0.8 2-1.3 1.2-0.5 2.5-0.5 1.4 0 2.5 0.5 1.2 0.5 2.1 1.3 0.9 0.8 1.4 2 0.5 1.1 0.5 2.3zm-2.9 0q0-1.5-1-2.5-1.1-1-2.6-1-1.4 0-2.5 1-1 1-1 2.5 0 1.5 1 2.5 1.1 1 2.5 1 1.5 0 2.6-1 1-1 1-2.5zm6.6-6.6h2.9v24.3h-2.9z"/>
				<path id="&lt;Compound Path&gt;" fill-rule="evenodd" class="s2" d="m210.5 33v3.2h-3v-3.2h-6.6v-2.5h16.2v2.5zm-5.1 2.1v5.1h17.3v2.6h-20.3v-7.7zm9.1-10.9q0 1.1-0.4 2.1-0.5 1-1.3 1.7-0.8 0.8-1.8 1.2-1.1 0.4-2.3 0.4-1.2 0-2.2-0.4-1.1-0.4-1.9-1.2-0.8-0.7-1.2-1.7-0.5-1-0.5-2.1 0-1.1 0.5-2.1 0.4-1 1.2-1.8 0.8-0.7 1.9-1.1 1-0.5 2.2-0.5 1.2 0 2.3 0.5 1 0.4 1.8 1.1 0.8 0.8 1.3 1.8 0.4 1 0.4 2.1zm-2.8 0q0-1.2-0.9-2.1-0.8-0.8-2.1-0.8-1.2 0-2.1 0.8-0.9 0.9-0.9 2.1 0 1.2 0.9 2.1 0.9 0.8 2.1 0.8 1.3 0 2.1-0.8 0.9-0.9 0.9-2.1zm7.4 4.2h-3.5v-2.5h3.5v-6.9h2.9v17.5h-2.9z"/>
				<path id="&lt;Compound Path&gt;" fill-rule="evenodd" class="s2" d="m241.9 40.8h-15.9v-2.6h6.4v-3q-0.4-0.1-0.8-0.3-1.1-0.4-1.9-1.1-0.8-0.8-1.3-1.8-0.5-1-0.5-2.1 0-1.1 0.5-2.1 0.5-1 1.3-1.7 0.8-0.8 1.9-1.2 1-0.4 2.3-0.4 1.2 0 2.2 0.4 1.1 0.4 1.9 1.2 0.8 0.7 1.3 1.7 0.4 1 0.4 2.1 0 1.1-0.4 2.1-0.5 1-1.3 1.8-0.8 0.7-1.9 1.1-0.4 0.2-0.9 0.3v3h6.7zm-9.7-19.4v-2.5h3.2v2.5h5.9v2.6h-15v-2.6zm4.6 8.4q0-1.2-0.8-2-0.9-0.9-2.2-0.9-1.2 0-2.1 0.9-0.8 0.8-0.8 2 0 1.2 0.8 2.1 0.9 0.9 2.1 0.9 1.3 0 2.2-0.9 0.8-0.9 0.8-2.1zm7.2-10.8h3v24.2h-3z"/>
			</g>
		</g>
	</g>
</svg>